# xmcd CD database file
#
# Track frame offsets:
#	150
#	19277
#	44647
#	68377
#	93502
#	114877
#	137347
#	169320
#	210227
#	252095
#	284372
#
# Disc length: 4224 seconds
#
# Revision: 0
# Processed by: cddbd v1.4PL0 Copyright (c) Steve Scherf et al.
# Submitted via: CDex 1.40Release
#
DISCID=90107e0b
DTITLE=Darrel Mansfield blues band - Live on Tour
DYEAR=2000
DGENRE=Blues
TTITLE0=Let's Work Together
TTITLE1=There's Gotta Be A Change
TTITLE2=Tell The Truth
TTITLE3=Walk With Me Jesus
TTITLE4=The Mission
TTITLE5=Nobody But You Lord
TTITLE6=Boom Boom
TTITLE7=Stand  By Me
TTITLE8=Time To Go
TTITLE9=People Get Ready
TTITLE10=Swing Low, Sweet Chariot
EXTD=YEAR: 2000 ID3G: 0
EXTT0=
EXTT1=
EXTT2=
EXTT3=
EXTT4=
EXTT5=
EXTT6=
EXTT7=
EXTT8=
EXTT9=
EXTT10=
PLAYORDER=
